# This file uses centimeters as units for non-parametric coordinates.

mtllib Rockdark4.mtl
g default
v 0.812741 -0.455426 -0.660887
v 0.378857 -0.455426 -0.660887
v 0.138160 -0.455426 1.323938
v 0.318524 -0.455426 1.699693
v 0.679252 -0.455426 1.699693
v 1.029683 -0.455426 -0.285133
v 0.986715 -0.231490 -3.065939
v -1.116623 -0.231490 -3.065939
v -1.249812 -0.177947 1.323938
v 0.173883 -0.177947 2.001025
v 1.372129 -0.177947 2.001025
v 2.037050 -0.231490 -2.388853
v 1.083263 0.169479 -3.233165
v -1.213171 0.169479 -3.233166
v -1.410351 0.223021 1.323938
v 0.093613 0.223021 2.168251
v 1.452399 0.223021 2.168251
v 2.230146 0.169479 -2.388853
v 1.083263 1.082811 -1.917235
v -0.603957 0.965982 -1.822187
v -1.097248 0.668063 0.859455
v -0.190272 0.668063 1.332224
v 1.083263 0.668063 1.283672
v 1.570727 0.965422 -0.592876
v 0.986715 1.586224 -1.105939
v -0.294256 1.234749 -1.850731
v -0.938645 1.022552 0.794968
v -0.166787 1.022552 1.376633
v 1.183162 1.022552 1.431037
v 1.377630 1.594367 -0.217815
v 0.812741 2.159226 -0.007797
v -0.126901 1.728516 -0.962633
v -0.733408 1.567510 -0.499126
v -0.421259 1.459042 0.539975
v 0.950903 1.392992 1.143138
v 1.029683 2.003588 0.290978
v 0.595799 -0.554458 -0.285133
v -0.047730 1.820557 0.553745
vt 0.000000 0.142857
vt 0.166667 0.142857
vt 0.333333 0.142857
vt 0.500000 0.142857
vt 0.666667 0.142857
vt 0.833333 0.142857
vt 1.000000 0.142857
vt 0.000000 0.285714
vt 0.166667 0.285714
vt 0.333333 0.285714
vt 0.500000 0.285714
vt 0.666667 0.285714
vt 0.833333 0.285714
vt 1.000000 0.285714
vt 0.000000 0.428571
vt 0.166667 0.428571
vt 0.333333 0.428571
vt 0.500000 0.428571
vt 0.666667 0.428571
vt 0.833333 0.428571
vt 1.000000 0.428571
vt 0.000000 0.571429
vt 0.166667 0.571429
vt 0.333333 0.571429
vt 0.500000 0.571429
vt 0.666667 0.571429
vt 0.833333 0.571429
vt 1.000000 0.571429
vt 0.000000 0.714286
vt 0.166667 0.714286
vt 0.333333 0.714286
vt 0.500000 0.714286
vt 0.666667 0.714286
vt 0.833333 0.714286
vt 1.000000 0.714286
vt 0.000000 0.857143
vt 0.166667 0.857143
vt 0.333333 0.857143
vt 0.500000 0.857143
vt 0.666667 0.857143
vt 0.833333 0.857143
vt 1.000000 0.857143
vt 0.083333 0.000000
vt 0.250000 0.000000
vt 0.416667 0.000000
vt 0.583333 0.000000
vt 0.750000 0.000000
vt 0.916667 0.000000
vt 0.083333 1.000000
vt 0.250000 1.000000
vt 0.416667 1.000000
vt 0.583333 1.000000
vt 0.750000 1.000000
vt 0.916667 1.000000
vn 0.000000 -0.995693 -0.092710
vn 0.000000 -0.995693 -0.092710
vn 0.000000 -0.995693 -0.092710
vn 0.000000 -0.995693 -0.092710
vn -0.169954 -0.985451 -0.001691
vn -0.169954 -0.985451 -0.001691
vn -0.169954 -0.985451 -0.001691
vn -0.169954 -0.985451 -0.001691
vn -0.248439 -0.891632 0.378511
vn -0.248439 -0.891632 0.378511
vn -0.248439 -0.891632 0.378511
vn -0.248439 -0.891632 0.378511
vn 0.000000 -0.735622 0.677392
vn 0.000000 -0.735622 0.677392
vn 0.000000 -0.735622 0.677392
vn 0.000000 -0.735622 0.677392
vn 0.342644 -0.937388 0.062449
vn 0.342643 -0.937388 0.062449
vn 0.342643 -0.937388 0.062449
vn 0.342644 -0.937388 0.062449
vn 0.067395 -0.994423 -0.081121
vn 0.067395 -0.994423 -0.081121
vn 0.067395 -0.994423 -0.081121
vn 0.067395 -0.994423 -0.081121
vn 0.000000 -0.384921 -0.922950
vn 0.000000 -0.384921 -0.922950
vn 0.000000 -0.384921 -0.922949
vn 0.000000 -0.384921 -0.922949
vn -0.949876 -0.311051 -0.031351
vn -0.949876 -0.311051 -0.031351
vn -0.949876 -0.311051 -0.031351
vn -0.949876 -0.311051 -0.031351
vn -0.438732 -0.307796 0.844261
vn -0.438732 -0.307796 0.844261
vn -0.438732 -0.307796 0.844261
vn -0.438732 -0.307796 0.844261
vn 0.000000 -0.384921 0.922949
vn 0.000000 -0.384921 0.922950
vn 0.000000 -0.384921 0.922950
vn 0.000000 -0.384921 0.922950
vn 0.925122 -0.347331 0.153330
vn 0.925122 -0.347331 0.153330
vn 0.925122 -0.347331 0.153330
vn 0.925122 -0.347331 0.153330
vn 0.532666 -0.352806 -0.769282
vn 0.532666 -0.352806 -0.769282
vn 0.532666 -0.352806 -0.769282
vn 0.532666 -0.352806 -0.769282
vn -0.037462 0.850378 -0.524838
vn -0.037462 0.850378 -0.524838
vn -0.037462 0.850378 -0.524838
vn -0.037462 0.850378 -0.524838
vn -0.781600 0.621475 -0.053573
vn -0.781600 0.621475 -0.053573
vn -0.781600 0.621475 -0.053573
vn -0.781600 0.621475 -0.053573
vn -0.292592 0.792167 0.535595
vn -0.292592 0.792167 0.535595
vn -0.292592 0.792167 0.535595
vn -0.292592 0.792167 0.535595
vn 0.008428 0.889464 0.456928
vn 0.008428 0.889464 0.456928
vn 0.008428 0.889464 0.456928
vn 0.008428 0.889464 0.456928
vn 0.818516 0.545019 0.181620
vn 0.818516 0.545019 0.181620
vn 0.818516 0.545019 0.181620
vn 0.818516 0.545019 0.181620
vn 0.499668 0.799535 -0.333280
vn 0.499668 0.799535 -0.333280
vn 0.499668 0.799535 -0.333280
vn 0.499668 0.799535 -0.333280
vn 0.043626 0.705256 -0.707610
vn 0.043626 0.705256 -0.707610
vn 0.043626 0.705256 -0.707610
vn 0.043626 0.705256 -0.707610
vn -0.802327 0.585650 -0.115262
vn -0.802327 0.585650 -0.115262
vn -0.802327 0.585650 -0.115262
vn -0.802327 0.585650 -0.115262
vn -0.525142 0.158553 0.836114
vn -0.525142 0.158553 0.836114
vn -0.525142 0.158553 0.836114
vn -0.525142 0.158553 0.836114
vn -0.002153 -0.260760 0.965401
vn -0.002153 -0.260760 0.965401
vn -0.002153 -0.260760 0.965401
vn -0.002153 -0.260760 0.965401
vn 0.982095 -0.006938 0.188260
vn 0.982095 -0.006938 0.188260
vn 0.982095 -0.006938 0.188260
vn 0.982095 -0.006938 0.188260
vn 0.805432 0.514422 -0.294364
vn 0.805432 0.514422 -0.294364
vn 0.805431 0.514422 -0.294364
vn 0.805431 0.514422 -0.294364
vn 0.051636 0.879875 -0.472391
vn 0.051636 0.879875 -0.472391
vn 0.051636 0.879875 -0.472391
vn 0.051636 0.879875 -0.472391
vn -0.917946 0.194024 -0.346019
vn -0.917946 0.194024 -0.346019
vn -0.917946 0.194024 -0.346019
vn -0.917946 0.194024 -0.346019
vn -0.482445 0.791296 0.375628
vn -0.482446 0.791296 0.375628
vn -0.482446 0.791296 0.375628
vn -0.482446 0.791296 0.375628
vn -0.129556 0.778217 0.614487
vn -0.129556 0.778217 0.614487
vn -0.129556 0.778217 0.614487
vn -0.129556 0.778217 0.614487
vn 0.800398 0.503430 0.325456
vn 0.800398 0.503430 0.325456
vn 0.800398 0.503430 0.325456
vn 0.800398 0.503430 0.325456
vn 0.641204 0.729622 -0.237716
vn 0.641204 0.729622 -0.237716
vn 0.641204 0.729622 -0.237716
vn 0.641204 0.729622 -0.237716
vn 0.000000 -0.966980 -0.254850
vn 0.000000 -0.966980 -0.254850
vn 0.000000 -0.966981 -0.254850
vn -0.352644 -0.934780 -0.042765
vn -0.352644 -0.934780 -0.042765
vn -0.352644 -0.934780 -0.042765
vn -0.080194 -0.996036 0.038493
vn -0.080194 -0.996036 0.038493
vn -0.080194 -0.996036 0.038493
vn 0.000000 -0.998758 0.049832
vn 0.000000 -0.998758 0.049832
vn 0.000000 -0.998758 0.049832
vn 0.222349 -0.974176 0.039257
vn 0.222349 -0.974176 0.039257
vn 0.222349 -0.974176 0.039257
vn 0.220707 -0.966981 -0.127425
vn 0.220707 -0.966981 -0.127425
vn 0.220707 -0.966981 -0.127425
vn -0.386141 0.921745 -0.035787
vn -0.386141 0.921745 -0.035787
vn -0.386141 0.921745 -0.035787
vn -0.286980 0.956966 -0.043102
vn -0.286980 0.956966 -0.043102
vn -0.286980 0.956966 -0.043102
vn -0.674023 0.685981 0.274086
vn -0.674023 0.685981 0.274086
vn -0.674023 0.685981 0.274086
vn -0.364076 0.343194 0.865833
vn -0.364076 0.343194 0.865833
vn -0.364076 0.343194 0.865833
vn 0.004050 0.812687 0.582687
vn 0.004050 0.812687 0.582687
vn 0.004050 0.812687 0.582687
vn -0.031905 0.876752 0.479884
vn -0.031905 0.876752 0.479884
vn -0.031905 0.876752 0.479884
s off
g pasted__pasted__pSphere5 pasted__group65 group66
usemtl pasted__lambert8SG
f 1/1/1 2/2/2 8/9/3 7/8/4
f 2/2/5 3/3/6 9/10/7 8/9/8
f 3/3/9 4/4/10 10/11/11 9/10/12
f 4/4/13 5/5/14 11/12/15 10/11/16
f 5/5/17 6/6/18 12/13/19 11/12/20
f 6/6/21 1/7/22 7/14/23 12/13/24
f 7/8/25 8/9/26 14/16/27 13/15/28
f 8/9/29 9/10/30 15/17/31 14/16/32
f 9/10/33 10/11/34 16/18/35 15/17/36
f 10/11/37 11/12/38 17/19/39 16/18/40
f 11/12/41 12/13/42 18/20/43 17/19/44
f 12/13/45 7/14/46 13/21/47 18/20/48
f 13/15/49 14/16/50 20/23/51 19/22/52
f 14/16/53 15/17/54 21/24/55 20/23/56
f 15/17/57 16/18/58 22/25/59 21/24/60
f 16/18/61 17/19/62 23/26/63 22/25/64
f 17/19/65 18/20/66 24/27/67 23/26/68
f 18/20/69 13/21/70 19/28/71 24/27/72
f 19/22/73 20/23/74 26/30/75 25/29/76
f 20/23/77 21/24/78 27/31/79 26/30/80
f 21/24/81 22/25/82 28/32/83 27/31/84
f 22/25/85 23/26/86 29/33/87 28/32/88
f 23/26/89 24/27/90 30/34/91 29/33/92
f 24/27/93 19/28/94 25/35/95 30/34/96
f 25/29/97 26/30/98 32/37/99 31/36/100
f 26/30/101 27/31/102 33/38/103 32/37/104
f 27/31/105 28/32/106 34/39/107 33/38/108
f 28/32/109 29/33/110 35/40/111 34/39/112
f 29/33/113 30/34/114 36/41/115 35/40/116
f 30/34/117 25/35/118 31/42/119 36/41/120
f 2/2/121 1/1/122 37/43/123
f 3/3/124 2/2/125 37/44/126
f 4/4/127 3/3/128 37/45/129
f 5/5/130 4/4/131 37/46/132
f 6/6/133 5/5/134 37/47/135
f 1/7/136 6/6/137 37/48/138
f 31/36/139 32/37/140 38/49/141
f 32/37/142 33/38/143 38/50/144
f 33/38/145 34/39/146 38/51/147
f 34/39/148 35/40/149 38/52/150
f 35/40/151 36/41/152 38/53/153
f 36/41/154 31/42/155 38/54/156
