# This file uses centimeters as units for non-parametric coordinates.

mtllib rock3.mtl
g default
v 0.358180 -0.404735 -0.438352
v -0.075703 -0.404735 -0.438352
v -0.292645 -0.404735 1.003023
v -0.075704 -0.404735 1.378777
v 0.358180 -0.404735 1.378777
v 0.575122 -0.404735 -0.062597
v 0.532154 -0.180799 -2.843404
v -0.961969 -0.180799 -2.843404
v -1.352885 -0.127256 1.003023
v -0.249677 -0.127256 1.680109
v 0.532154 -0.127256 1.680109
v 0.923070 -0.180799 -2.166318
v 0.628703 0.220170 -3.010630
v -1.058517 0.220170 -3.010630
v -1.545981 0.273713 1.003023
v -0.346226 0.273713 1.847335
v 0.628702 0.273713 1.847336
v 1.116166 0.220170 -2.166318
v 0.628703 1.133503 -1.694700
v -1.058517 1.016674 -1.599652
v -1.545981 0.718755 -0.062597
v -0.346226 0.718755 1.506208
v 0.628702 0.718755 1.506208
v 1.116166 1.016114 -0.370340
v 0.532154 1.402270 -1.336536
v -0.748817 1.285441 -1.628196
v -1.336180 1.073243 -0.276590
v -0.315160 1.073243 1.653572
v 0.728601 1.073243 1.653572
v 0.923070 1.417082 0.127768
v 0.358180 1.977668 -0.364842
v -0.581462 1.779208 -0.740098
v -1.031961 1.618202 -0.276590
v -0.719811 1.819361 0.526796
v 0.496343 1.443684 0.526796
v 0.575122 1.694561 0.127768
v 0.141238 -0.503766 -0.062597
v -0.502291 1.970810 -0.062597
vt 0.000000 0.142857
vt 0.166667 0.142857
vt 0.333333 0.142857
vt 0.500000 0.142857
vt 0.666667 0.142857
vt 0.833333 0.142857
vt 1.000000 0.142857
vt 0.000000 0.285714
vt 0.166667 0.285714
vt 0.333333 0.285714
vt 0.500000 0.285714
vt 0.666667 0.285714
vt 0.833333 0.285714
vt 1.000000 0.285714
vt 0.000000 0.428571
vt 0.166667 0.428571
vt 0.333333 0.428571
vt 0.500000 0.428571
vt 0.666667 0.428571
vt 0.833333 0.428571
vt 1.000000 0.428571
vt 0.000000 0.571429
vt 0.166667 0.571429
vt 0.333333 0.571429
vt 0.500000 0.571429
vt 0.666667 0.571429
vt 0.833333 0.571429
vt 1.000000 0.571429
vt 0.000000 0.714286
vt 0.166667 0.714286
vt 0.333333 0.714286
vt 0.500000 0.714286
vt 0.666667 0.714286
vt 0.833333 0.714286
vt 1.000000 0.714286
vt 0.000000 0.857143
vt 0.166667 0.857143
vt 0.333333 0.857143
vt 0.500000 0.857143
vt 0.666667 0.857143
vt 0.833333 0.857143
vt 1.000000 0.857143
vt 0.083333 0.000000
vt 0.250000 0.000000
vt 0.416667 0.000000
vt 0.583333 0.000000
vt 0.750000 0.000000
vt 0.916667 0.000000
vt 0.083333 1.000000
vt 0.250000 1.000000
vt 0.416667 1.000000
vt 0.583333 1.000000
vt 0.750000 1.000000
vt 0.916667 1.000000
vn 0.000000 -0.995693 -0.092710
vn 0.000000 -0.995693 -0.092710
vn 0.000000 -0.995693 -0.092710
vn 0.000000 -0.995693 -0.092710
vn -0.230133 -0.973018 -0.016602
vn -0.230133 -0.973018 -0.016602
vn -0.230133 -0.973018 -0.016602
vn -0.230133 -0.973017 -0.016602
vn -0.301372 -0.875429 0.377888
vn -0.301372 -0.875429 0.377888
vn -0.301372 -0.875429 0.377888
vn -0.301372 -0.875429 0.377888
vn 0.000000 -0.735622 0.677392
vn 0.000000 -0.735622 0.677392
vn 0.000000 -0.735622 0.677392
vn 0.000000 -0.735622 0.677392
vn 0.850807 -0.515280 0.103022
vn 0.850807 -0.515280 0.103022
vn 0.850807 -0.515280 0.103022
vn 0.850807 -0.515280 0.103022
vn 0.141393 -0.986582 -0.081633
vn 0.141393 -0.986582 -0.081633
vn 0.141393 -0.986582 -0.081633
vn 0.141393 -0.986582 -0.081633
vn 0.000000 -0.384921 -0.922950
vn 0.000000 -0.384921 -0.922950
vn 0.000000 -0.384921 -0.922950
vn 0.000000 -0.384921 -0.922950
vn -0.929142 -0.356228 -0.098980
vn -0.929142 -0.356228 -0.098980
vn -0.929142 -0.356228 -0.098980
vn -0.929142 -0.356228 -0.098980
vn -0.516437 -0.349541 0.781738
vn -0.516437 -0.349541 0.781738
vn -0.516437 -0.349541 0.781738
vn -0.516437 -0.349541 0.781738
vn -0.000000 -0.384921 0.922949
vn -0.000000 -0.384921 0.922949
vn -0.000000 -0.384921 0.922949
vn -0.000000 -0.384921 0.922949
vn 0.927533 -0.357638 0.108526
vn 0.927533 -0.357638 0.108526
vn 0.927533 -0.357638 0.108526
vn 0.927533 -0.357638 0.108526
vn 0.799298 -0.384921 -0.461475
vn 0.799298 -0.384921 -0.461475
vn 0.799298 -0.384921 -0.461475
vn 0.799298 -0.384921 -0.461475
vn -0.044252 0.846397 -0.530711
vn -0.044252 0.846397 -0.530711
vn -0.044252 0.846397 -0.530711
vn -0.044252 0.846397 -0.530711
vn -0.984166 0.047502 -0.170768
vn -0.984166 0.047502 -0.170768
vn -0.984166 0.047502 -0.170768
vn -0.984166 0.047502 -0.170768
vn -0.473591 0.744275 0.470921
vn -0.473591 0.744275 0.470921
vn -0.473591 0.744275 0.470921
vn -0.473591 0.744275 0.470921
vn 0.000000 0.608352 0.793667
vn 0.000000 0.608352 0.793667
vn 0.000000 0.608352 0.793667
vn 0.000000 0.608352 0.793667
vn 0.971668 -0.179818 0.153384
vn 0.971668 -0.179818 0.153384
vn 0.971668 -0.179818 0.153384
vn 0.971668 -0.179818 0.153384
vn 0.761932 0.567662 -0.311799
vn 0.761932 0.567662 -0.311800
vn 0.761932 0.567662 -0.311800
vn 0.761932 0.567662 -0.311799
vn 0.015860 0.518107 -0.855169
vn 0.015860 0.518107 -0.855169
vn 0.015860 0.518107 -0.855169
vn 0.015860 0.518107 -0.855169
vn -0.789273 0.583713 -0.190597
vn -0.789273 0.583713 -0.190597
vn -0.789273 0.583713 -0.190597
vn -0.789273 0.583713 -0.190597
vn -0.800039 0.319525 0.507780
vn -0.800039 0.319525 0.507781
vn -0.800039 0.319525 0.507780
vn -0.800039 0.319525 0.507780
vn -0.000000 -0.383863 0.923390
vn -0.000000 -0.383863 0.923390
vn -0.000000 -0.383863 0.923390
vn -0.000000 -0.383863 0.923390
vn 0.981139 -0.040465 0.189023
vn 0.981139 -0.040465 0.189023
vn 0.981139 -0.040465 0.189023
vn 0.981139 -0.040465 0.189023
vn 0.762964 0.608597 -0.217934
vn 0.762964 0.608597 -0.217934
vn 0.762964 0.608597 -0.217934
vn 0.762964 0.608597 -0.217934
vn 0.026555 0.866685 -0.498149
vn 0.026555 0.866685 -0.498149
vn 0.026555 0.866685 -0.498149
vn 0.026555 0.866685 -0.498149
vn -0.743578 0.596274 -0.302571
vn -0.743578 0.596274 -0.302571
vn -0.743578 0.596274 -0.302571
vn -0.743578 0.596274 -0.302571
vn -0.869792 0.284300 0.403282
vn -0.869792 0.284300 0.403282
vn -0.869792 0.284300 0.403282
vn -0.869792 0.284300 0.403282
vn 0.149964 0.902120 0.404586
vn 0.149964 0.902120 0.404586
vn 0.149964 0.902120 0.404586
vn 0.149964 0.902120 0.404586
vn 0.355451 0.877620 0.321618
vn 0.355451 0.877620 0.321618
vn 0.355451 0.877620 0.321618
vn 0.355451 0.877620 0.321618
vn 0.758909 0.633965 -0.148816
vn 0.758909 0.633965 -0.148816
vn 0.758909 0.633965 -0.148816
vn 0.758909 0.633965 -0.148816
vn 0.000000 -0.966980 -0.254850
vn 0.000000 -0.966980 -0.254850
vn 0.000000 -0.966981 -0.254850
vn -0.340015 -0.939027 -0.051176
vn -0.340015 -0.939027 -0.051176
vn -0.340015 -0.939027 -0.051176
vn -0.093839 -0.994112 0.054178
vn -0.093839 -0.994112 0.054178
vn -0.093839 -0.994112 0.054178
vn 0.000000 -0.997648 0.068544
vn 0.000000 -0.997648 0.068544
vn 0.000000 -0.997648 0.068544
vn 0.222396 -0.974382 0.033473
vn 0.222396 -0.974382 0.033473
vn 0.222396 -0.974382 0.033473
vn 0.220707 -0.966981 -0.127425
vn 0.220707 -0.966981 -0.127425
vn 0.220707 -0.966981 -0.127425
vn -0.099005 0.960501 -0.260068
vn -0.099005 0.960501 -0.260068
vn -0.099005 0.960501 -0.260068
vn -0.492461 0.850860 -0.183081
vn -0.492461 0.850860 -0.183081
vn -0.492461 0.850860 -0.183081
vn -0.556411 0.830867 0.008150
vn -0.556411 0.830867 0.008150
vn -0.556411 0.830867 0.008150
vn 0.278188 0.900559 0.334074
vn 0.278188 0.900559 0.334074
vn 0.278188 0.900559 0.334074
vn 0.116583 0.830273 0.545028
vn 0.116583 0.830273 0.545028
vn 0.116583 0.830273 0.545028
vn 0.148485 0.884245 0.442791
vn 0.148485 0.884245 0.442791
vn 0.148485 0.884245 0.442791
s off
g pasted__pasted__pSphere5 pasted__group65 group67
usemtl lambert7SG
f 1/1/1 2/2/2 8/9/3 7/8/4
f 2/2/5 3/3/6 9/10/7 8/9/8
f 3/3/9 4/4/10 10/11/11 9/10/12
f 4/4/13 5/5/14 11/12/15 10/11/16
f 5/5/17 6/6/18 12/13/19 11/12/20
f 6/6/21 1/7/22 7/14/23 12/13/24
f 7/8/25 8/9/26 14/16/27 13/15/28
f 8/9/29 9/10/30 15/17/31 14/16/32
f 9/10/33 10/11/34 16/18/35 15/17/36
f 10/11/37 11/12/38 17/19/39 16/18/40
f 11/12/41 12/13/42 18/20/43 17/19/44
f 12/13/45 7/14/46 13/21/47 18/20/48
f 13/15/49 14/16/50 20/23/51 19/22/52
f 14/16/53 15/17/54 21/24/55 20/23/56
f 15/17/57 16/18/58 22/25/59 21/24/60
f 16/18/61 17/19/62 23/26/63 22/25/64
f 17/19/65 18/20/66 24/27/67 23/26/68
f 18/20/69 13/21/70 19/28/71 24/27/72
f 19/22/73 20/23/74 26/30/75 25/29/76
f 20/23/77 21/24/78 27/31/79 26/30/80
f 21/24/81 22/25/82 28/32/83 27/31/84
f 22/25/85 23/26/86 29/33/87 28/32/88
f 23/26/89 24/27/90 30/34/91 29/33/92
f 24/27/93 19/28/94 25/35/95 30/34/96
f 25/29/97 26/30/98 32/37/99 31/36/100
f 26/30/101 27/31/102 33/38/103 32/37/104
f 27/31/105 28/32/106 34/39/107 33/38/108
f 28/32/109 29/33/110 35/40/111 34/39/112
f 29/33/113 30/34/114 36/41/115 35/40/116
f 30/34/117 25/35/118 31/42/119 36/41/120
f 2/2/121 1/1/122 37/43/123
f 3/3/124 2/2/125 37/44/126
f 4/4/127 3/3/128 37/45/129
f 5/5/130 4/4/131 37/46/132
f 6/6/133 5/5/134 37/47/135
f 1/7/136 6/6/137 37/48/138
f 31/36/139 32/37/140 38/49/141
f 32/37/142 33/38/143 38/50/144
f 33/38/145 34/39/146 38/51/147
f 34/39/148 35/40/149 38/52/150
f 35/40/151 36/41/152 38/53/153
f 36/41/154 31/42/155 38/54/156
