# This file uses centimeters as units for non-parametric coordinates.

mtllib stump2.mtl
g default
v 0.539874 0.367281 -1.383688
v 0.304989 0.661819 -1.383688
v -0.034430 0.825274 -1.383688
v -0.411157 0.825275 -1.383688
v -0.750577 0.661819 -1.383688
v -0.985462 0.367282 -1.383688
v -1.069292 0.000000 -1.383688
v -0.985462 -0.367282 -1.383688
v -0.034431 -0.825275 -1.383688
v 0.304989 -0.661819 -1.383688
v 0.539874 -0.367282 -1.383688
v 0.623704 0.000000 -1.383688
v 0.539874 0.367281 1.754531
v 0.304989 0.661819 1.754531
v -0.034430 0.825274 1.754531
v -0.411157 0.825275 1.754531
v -0.750577 0.661819 1.754531
v -0.985462 0.367282 1.754531
v -1.069292 0.000000 1.754531
v -0.985462 -0.367282 1.754531
v -0.034431 -0.825275 1.754531
v 0.304989 -0.661819 1.754531
v 0.539874 -0.367282 1.754531
v 0.623704 0.000000 1.754531
v -0.023797 0.827074 -1.383688
v 0.160972 0.731174 1.754531
v -0.023797 0.788715 -1.378298
v -0.034430 0.786919 -1.378409
v -0.034430 0.628082 1.754925
v 0.160972 0.534127 1.749140
v -0.665431 0.702823 -1.383688
v -0.665431 0.702823 1.754531
v -1.056811 0.054683 -1.383688
v -1.056811 0.054683 1.754531
v 0.557570 0.289750 -1.383688
v 0.557570 0.289750 1.754531
v 0.560131 -0.278533 -1.383688
v 0.560131 -0.278533 1.754531
v 0.473855 -0.352213 -1.383688
v 0.494111 -0.263464 -1.383688
v 0.494111 -0.263464 1.754531
v 0.473855 -0.352213 1.754531
v -0.636050 0.641812 -1.383688
v -0.721195 0.600808 -1.383688
v -0.721195 0.600808 1.754531
v -0.636050 0.641812 1.754531
v -0.990792 0.039615 -1.383688
v -1.003273 -0.015068 -1.383688
v -1.003273 -0.015068 1.754531
v -0.990792 0.039615 1.754531
v 0.491551 0.274682 -1.383688
v 0.473855 0.352213 -1.383688
v 0.473855 0.352213 1.754531
v 0.491551 0.274682 1.754531
v -0.985462 -0.367282 -1.386986
v -0.750577 -0.661819 -1.386986
v -0.750577 -0.661819 1.754531
v -0.985462 -0.367282 1.754531
v -0.411158 -0.825274 -1.386986
v -0.411158 -0.825274 1.754531
v -0.034431 -0.825275 -1.386986
v -0.034431 -0.825275 1.754531
v 0.539874 0.367281 -1.386986
v 0.304989 0.661819 -1.386986
v -0.023797 0.827074 -1.386986
v -0.034430 0.825274 -1.386986
v -0.411157 0.825275 -1.386986
v -0.665431 0.702823 -1.386986
v -0.750577 0.661819 -1.386986
v -0.985462 0.367282 -1.386986
v -1.056811 0.054683 -1.386986
v -1.069292 0.000000 -1.386986
v 0.304989 -0.661819 -1.386986
v 0.539874 -0.367282 -1.386986
v 0.560131 -0.278533 -1.386986
v 0.623704 -0.000000 -1.386986
v 0.557570 0.289750 -1.386986
v 0.539874 0.367281 1.754531
v 0.304989 0.661819 1.754531
v -0.222794 0.000000 1.754531
v -0.034430 0.825274 1.754531
v -0.411157 0.825275 1.754531
v -0.665431 0.702823 1.754531
v -0.750577 0.661819 1.754531
v -0.985462 0.367282 1.754531
v -1.056811 0.054683 1.754531
v -1.069292 0.000000 1.754531
v 0.304989 -0.661819 1.754531
v 0.539874 -0.367282 1.754531
v 0.560131 -0.278533 1.754531
v 0.623704 0.000000 1.754531
v 0.557570 0.289750 1.754531
v 0.160972 0.731174 1.754531
v 0.160972 0.534127 1.749140
v -0.034430 0.628082 1.754925
v 0.539874 0.336711 -1.564553
v 0.304989 0.606818 -1.564553
v -0.222794 -0.000000 -1.564553
v -0.023797 0.753624 -1.564553
v -0.034430 0.756669 -1.564553
v -0.411157 0.756584 -1.564553
v -0.665431 0.652802 -1.564553
v -0.750577 0.606734 -1.564553
v -0.985462 0.336712 -1.564553
v -1.056811 0.064910 -1.564553
v -1.069292 0.000000 -1.564553
v -0.985462 -0.336712 -1.564553
v -0.750577 -0.606733 -1.564553
v -0.411158 -0.756584 -1.564553
v -0.034431 -0.756584 -1.564553
v 0.304989 -0.606734 -1.564553
v 0.539874 -0.336712 -1.564553
v 0.560131 -0.246246 -1.564553
v 0.623704 -0.000000 -1.564553
v 0.557570 0.255333 -1.564553
v -0.411157 0.825275 0.893189
v -0.665431 0.702823 0.893189
v -0.665431 0.702823 1.513031
v -0.411157 0.825275 1.513031
v -0.641814 1.304237 1.323358
v -0.896088 1.181786 1.323358
v -0.896088 1.181786 1.652271
v -0.641814 1.304237 1.652271
vt 0.640776 0.088456
vt 0.597420 0.034089
vt 0.534769 0.003918
vt 0.465231 0.003918
vt 0.402580 0.034089
vt 0.359224 0.088456
vt 0.343750 0.156250
vt 0.359224 0.224044
vt 0.402580 0.278411
vt 0.465231 0.308582
vt 0.534769 0.308582
vt 0.597420 0.278411
vt 0.640776 0.224044
vt 0.656250 0.156250
vt 0.375000 0.312500
vt 0.392857 0.312500
vt 0.410714 0.312500
vt 0.428571 0.312500
vt 0.446429 0.312500
vt 0.464286 0.312500
vt 0.482143 0.312500
vt 0.500000 0.312500
vt 0.517857 0.312500
vt 0.535714 0.312500
vt 0.553571 0.312500
vt 0.571428 0.312500
vt 0.589286 0.312500
vt 0.607143 0.312500
vt 0.625000 0.312500
vt 0.375000 0.688440
vt 0.392857 0.688440
vt 0.410714 0.688440
vt 0.428571 0.688440
vt 0.446429 0.688440
vt 0.464286 0.688440
vt 0.482143 0.688440
vt 0.500000 0.688440
vt 0.517857 0.688440
vt 0.535714 0.688440
vt 0.553571 0.688440
vt 0.571428 0.688440
vt 0.589286 0.688440
vt 0.607143 0.688440
vt 0.625000 0.688440
vt 0.640776 0.775956
vt 0.597420 0.721589
vt 0.534769 0.691418
vt 0.465231 0.691418
vt 0.402580 0.721589
vt 0.359224 0.775956
vt 0.343750 0.843750
vt 0.359224 0.911544
vt 0.402580 0.965911
vt 0.465231 0.996082
vt 0.534769 0.996082
vt 0.597420 0.965911
vt 0.640776 0.911544
vt 0.656250 0.843750
vt 0.500000 0.150000
vt 0.500000 0.837500
vt 0.403529 0.312500
vt 0.559979 0.016058
vt 0.403529 0.688440
vt 0.403529 0.312500
vt 0.410714 0.312500
vt 0.410714 0.688440
vt 0.403529 0.688440
vt 0.441949 0.312500
vt 0.418296 0.026520
vt 0.418296 0.973480
vt 0.441949 0.688440
vt 0.479484 0.312500
vt 0.346054 0.146156
vt 0.346054 0.853844
vt 0.479484 0.688440
vt 0.621230 0.312500
vt 0.644043 0.102767
vt 0.644043 0.897233
vt 0.621230 0.688440
vt 0.593601 0.312500
vt 0.644515 0.207663
vt 0.644515 0.792337
vt 0.593601 0.688440
vt 0.589286 0.312500
vt 0.593601 0.312500
vt 0.593601 0.688440
vt 0.589286 0.688440
vt 0.441949 0.312500
vt 0.446429 0.312500
vt 0.446429 0.688440
vt 0.441949 0.688440
vt 0.479484 0.312500
vt 0.482143 0.312500
vt 0.482143 0.688440
vt 0.479484 0.688440
vt 0.621230 0.312500
vt 0.625000 0.312500
vt 0.625000 0.688440
vt 0.621230 0.688440
vt 0.500000 0.688440
vt 0.500000 0.312500
vt 0.553571 0.312500
vt 0.553571 0.688440
vt 0.597420 0.034089
vt 0.640776 0.088456
vt 0.534769 0.003918
vt 0.559979 0.016058
vt 0.465231 0.003918
vt 0.402580 0.034089
vt 0.418296 0.026520
vt 0.359224 0.088456
vt 0.343750 0.156250
vt 0.346054 0.146156
vt 0.359224 0.224044
vt 0.597420 0.278411
vt 0.534769 0.308582
vt 0.640776 0.224044
vt 0.656250 0.156250
vt 0.644515 0.207663
vt 0.644043 0.102767
vt 0.640776 0.911544
vt 0.597420 0.965911
vt 0.534769 0.996082
vt 0.465231 0.996082
vt 0.418296 0.973480
vt 0.402580 0.965911
vt 0.359224 0.911544
vt 0.346054 0.853844
vt 0.343750 0.843750
vt 0.359224 0.775956
vt 0.534769 0.691418
vt 0.597420 0.721589
vt 0.640776 0.775956
vt 0.644515 0.792337
vt 0.656250 0.843750
vt 0.644043 0.897233
vt 0.403529 0.688440
vt 0.403529 0.688440
vt 0.410714 0.688440
vt 0.392857 0.688440
vt 0.597420 0.034089
vt 0.640776 0.088456
vt 0.534769 0.003918
vt 0.559979 0.016058
vt 0.465231 0.003918
vt 0.402580 0.034089
vt 0.418296 0.026520
vt 0.359224 0.088456
vt 0.343750 0.156250
vt 0.346054 0.146156
vt 0.359224 0.224044
vt 0.402580 0.278411
vt 0.465231 0.308582
vt 0.534769 0.308582
vt 0.597420 0.278411
vt 0.640776 0.224044
vt 0.656250 0.156250
vt 0.644515 0.207663
vt 0.644043 0.102767
vt 0.428571 0.312500
vt 0.441949 0.312500
vt 0.441949 0.688440
vt 0.428571 0.688440
vt 0.428571 0.312500
vt 0.441949 0.312500
vt 0.441949 0.688440
vt 0.428571 0.688440
vn 0.781832 0.623490 0.000000
vn 0.658021 0.752999 0.000254
vn 0.658021 0.752999 0.000254
vn 0.781832 0.623490 0.000000
vn 0.444496 0.895781 0.000602
vn 0.444496 0.895781 0.000602
vn 0.000000 1.000000 0.000000
vn -0.156358 0.987700 0.000000
vn -0.023771 0.999717 0.000000
vn 0.000000 1.000000 0.000000
vn -0.433884 0.900969 0.000000
vn -0.433884 0.900969 0.000000
vn -0.433884 0.900969 0.000000
vn -0.433884 0.900969 0.000000
vn -0.781831 0.623490 0.000000
vn -0.892853 0.450348 0.000000
vn -0.892853 0.450348 0.000000
vn -0.781831 0.623490 0.000000
vn -0.974928 0.222521 0.000000
vn -0.974928 0.222521 0.000000
vn -0.974928 -0.222521 0.000000
vn -0.974928 -0.222521 0.000000
vn -0.974928 -0.222521 0.000000
vn -0.974928 -0.222521 0.000000
vn -0.791501 -0.611091 -0.009673
vn -0.620794 -0.783867 -0.012935
vn -0.623490 -0.781831 0.000000
vn -0.781832 -0.623490 0.000000
vn -0.221117 -0.975083 -0.017904
vn -0.222521 -0.974928 0.000000
vn 0.017890 -0.999282 -0.033389
vn -0.000000 -1.000000 0.000000
vn 0.433884 -0.900969 0.000000
vn 0.623490 -0.781832 0.000000
vn 0.623490 -0.781832 0.000000
vn 0.433884 -0.900969 0.000000
vn 0.781832 -0.623490 0.000000
vn 0.781832 -0.623490 0.000000
vn 0.974928 -0.222521 0.000000
vn 0.974928 -0.222521 0.000000
vn 0.974928 -0.222521 0.000000
vn 0.974928 -0.222521 0.000000
vn 0.999990 0.004505 0.000000
vn 0.974928 0.222521 0.000000
vn 0.974928 0.222521 0.000000
vn 0.999990 0.004505 0.000000
vn 0.000000 -0.000000 -1.000000
vn 0.000000 -0.000000 -1.000000
vn 0.000000 -0.000000 -1.000000
vn 0.000000 -0.000000 -1.000000
vn 0.000000 -0.000001 -1.000000
vn 0.000000 0.000000 -1.000000
vn 0.000000 -0.000000 -1.000000
vn 0.000000 0.000001 -1.000000
vn 0.000000 -0.000001 -1.000000
vn 0.000000 -0.000000 -1.000000
vn 0.000000 -0.000000 -1.000000
vn 0.000000 -0.000000 -1.000000
vn 0.000000 -0.000000 -1.000000
vn 0.000000 -0.000000 -1.000000
vn 0.000000 0.000000 -1.000000
vn 0.000000 -0.000000 -1.000000
vn 0.000000 -0.000000 -1.000000
vn 0.000000 -0.000000 -1.000000
vn 0.000000 -0.000000 -1.000000
vn 0.000000 -0.000000 -1.000000
vn 0.000000 0.000000 1.000000
vn 0.000000 0.000000 1.000000
vn 0.000000 -0.000000 1.000000
vn 0.000000 0.000000 1.000000
vn 0.000000 -0.000000 1.000000
vn 0.000000 -0.000000 1.000000
vn 0.000000 -0.000000 1.000000
vn 0.000000 0.000000 1.000000
vn 0.000000 0.000000 1.000000
vn 0.000000 0.000000 1.000000
vn 0.000000 0.000000 1.000000
vn 0.000000 0.000000 1.000000
vn 0.000000 0.000000 1.000000
vn 0.000000 0.000000 1.000000
vn 0.000000 0.000000 1.000000
vn 0.000000 0.000000 1.000000
vn 0.000000 0.000000 1.000000
vn 0.000000 0.000000 1.000000
vn 0.000000 0.000000 1.000000
vn 0.408938 0.911293 0.048108
vn 0.408938 0.911293 0.048108
vn 0.408938 0.911293 0.048108
vn 0.408938 0.911293 0.048108
vn -0.028441 0.137703 0.990065
vn -0.028441 0.137703 0.990065
vn -0.028441 0.137703 0.990065
vn -0.028441 0.137703 0.990065
vn 1.000000 0.000000 0.000000
vn 1.000000 0.000000 0.000000
vn 1.000000 0.000000 0.000000
vn 1.000000 0.000000 0.000000
vn -0.998265 0.000000 0.058876
vn -0.998265 0.000000 0.058876
vn -0.998265 0.000000 0.058876
vn -0.998265 0.000000 0.058876
vn -0.002867 0.004174 0.999987
vn -0.002867 0.004174 0.999987
vn -0.002867 0.004174 0.999987
vn -0.002867 0.004174 0.999987
vn -0.002867 0.004174 0.999987
vn -0.002867 0.004174 0.999987
vn -0.433883 0.900969 0.000000
vn -0.433883 0.900969 0.000000
vn -0.433883 0.900969 0.000000
vn -0.433883 0.900969 0.000000
vn -0.974928 0.222520 0.000000
vn -0.974928 0.222520 0.000000
vn -0.974928 0.222520 0.000000
vn -0.974928 0.222520 0.000000
vn 0.974928 0.222521 0.000000
vn 0.974928 0.222521 0.000000
vn 0.974928 0.222521 0.000000
vn 0.974928 0.222521 0.000000
vn 0.974928 -0.222521 0.000000
vn 0.974928 -0.222521 0.000000
vn 0.000000 0.000000 1.000000
vn 0.000000 0.000000 1.000000
vn 0.000000 0.000000 1.000000
vn 0.000000 0.000000 1.000000
vn -0.222520 -0.974928 0.000000
vn -0.222520 -0.974928 0.000000
vn -0.222520 -0.974928 0.000000
vn -0.222520 -0.974928 0.000000
vn 0.000000 -0.000000 -1.000000
vn 0.000000 -0.000000 -1.000000
vn 0.000000 -0.000000 -1.000000
vn 0.000000 -0.000000 -1.000000
vn 0.222520 0.974928 0.000000
vn 0.222520 0.974928 0.000000
vn 0.222520 0.974928 0.000000
vn 0.222520 0.974928 0.000000
vn 0.000000 0.000000 1.000000
vn 0.000000 0.000000 1.000000
vn 0.000000 0.000000 1.000000
vn 0.000000 0.000000 1.000000
vn 0.900969 0.433884 0.000000
vn 0.900969 0.433884 0.000000
vn 0.900969 0.433884 0.000000
vn 0.900969 0.433884 0.000000
vn 0.000000 -0.000000 -1.000000
vn 0.000000 -0.000000 -1.000000
vn 0.000000 -0.000000 -1.000000
vn 0.000000 -0.000000 -1.000000
vn -0.900969 -0.433884 0.000000
vn -0.900969 -0.433884 0.000000
vn -0.900969 -0.433884 0.000000
vn -0.900969 -0.433884 0.000000
vn 0.000000 0.000000 1.000000
vn 0.000000 0.000000 1.000000
vn 0.000000 0.000000 1.000000
vn 0.000000 0.000000 1.000000
vn 0.222520 0.974928 0.000000
vn 0.222520 0.974928 0.000000
vn 0.222520 0.974928 0.000000
vn 0.222520 0.974928 0.000000
vn 0.000000 -0.000000 -1.000000
vn 0.000000 -0.000000 -1.000000
vn 0.000000 -0.000000 -1.000000
vn 0.000000 -0.000000 -1.000000
vn -0.222521 -0.974928 0.000000
vn -0.222521 -0.974928 0.000000
vn -0.222521 -0.974928 0.000000
vn -0.222521 -0.974928 0.000000
vn 0.000000 0.000000 1.000000
vn 0.000000 0.000000 1.000000
vn 0.000000 0.000000 1.000000
vn 0.000000 0.000000 1.000000
vn 0.222521 -0.974928 0.000000
vn 0.222521 -0.974928 0.000000
vn 0.222521 -0.974928 0.000000
vn 0.222521 -0.974928 0.000000
vn 0.000000 -0.000000 -1.000000
vn 0.000000 -0.000000 -1.000000
vn 0.000000 -0.000000 -1.000000
vn 0.000000 -0.000000 -1.000000
vn -0.222521 0.974928 0.000000
vn -0.222521 0.974928 0.000000
vn -0.222521 0.974928 0.000000
vn -0.222521 0.974928 0.000000
vn 0.000000 0.000000 0.000000
vn 0.000000 0.000000 0.000000
vn 0.000000 0.000000 0.000000
vn 0.000000 0.000000 0.000000
vn 0.000000 0.000000 0.000000
vn 0.000000 0.000000 0.000000
vn 0.000000 0.000000 0.000000
vn 0.000000 0.000000 0.000000
vn 0.781829 0.623493 0.000000
vn 0.781829 0.623493 0.000000
vn 0.781829 0.623493 0.000000
vn 0.781829 0.623493 0.000000
vn -0.166858 0.985981 0.000000
vn -0.166858 0.985981 0.000000
vn -0.166858 0.985981 0.000000
vn -0.166858 0.985981 0.000000
vn 0.449080 0.893491 0.000000
vn 0.449080 0.893491 0.000000
vn 0.449080 0.893491 0.000000
vn 0.449080 0.893491 0.000000
vn 0.000000 1.000000 0.000000
vn 0.000000 1.000000 0.000000
vn 0.000000 1.000000 0.000000
vn 0.000000 1.000000 0.000000
vn -0.433885 0.900968 0.000000
vn -0.433885 0.900968 0.000000
vn -0.433885 0.900968 0.000000
vn -0.433885 0.900968 0.000000
vn -0.433884 0.900969 0.000000
vn -0.433884 0.900969 0.000000
vn -0.433884 0.900969 0.000000
vn -0.433884 0.900969 0.000000
vn -0.781829 0.623493 0.000000
vn -0.781829 0.623493 0.000000
vn -0.781829 0.623493 0.000000
vn -0.781829 0.623493 0.000000
vn -0.974927 0.222524 0.000000
vn -0.974927 0.222524 0.000000
vn -0.974927 0.222524 0.000000
vn -0.974927 0.222524 0.000000
vn -0.974927 0.222524 0.000000
vn -0.974927 0.222524 0.000000
vn -0.974927 0.222524 0.000000
vn -0.974927 0.222524 0.000000
vn -0.974927 -0.222523 0.000000
vn -0.974927 -0.222523 0.000000
vn -0.974927 -0.222523 0.000000
vn -0.974927 -0.222523 0.000000
vn 0.433888 -0.900967 0.000000
vn 0.433888 -0.900967 0.000000
vn 0.433888 -0.900967 0.000000
vn 0.433888 -0.900967 0.000000
vn 0.781829 -0.623493 0.000000
vn 0.781829 -0.623493 0.000000
vn 0.781829 -0.623493 0.000000
vn 0.781829 -0.623493 0.000000
vn 0.974927 -0.222525 0.000000
vn 0.974927 -0.222525 0.000000
vn 0.974927 -0.222525 0.000000
vn 0.974927 -0.222525 0.000000
vn 0.974928 -0.222519 0.000000
vn 0.974928 -0.222519 0.000000
vn 0.974928 -0.222519 0.000000
vn 0.974928 -0.222519 0.000000
vn 0.974927 0.222525 0.000000
vn 0.974927 0.222525 0.000000
vn 0.974927 0.222525 0.000000
vn 0.974927 0.222525 0.000000
vn 0.974927 0.222523 0.000000
vn 0.974927 0.222523 0.000000
vn 0.974927 0.222523 0.000000
vn 0.974927 0.222523 0.000000
vn 0.000000 0.000000 0.000000
vn 0.000000 0.000000 0.000000
vn 0.000000 0.000000 0.000000
vn 0.000000 0.000000 0.000000
vn 0.000000 0.000000 0.000000
vn 0.000000 0.000000 0.000000
vn 0.000000 0.000000 0.000000
vn 0.000000 0.000000 0.000000
vn 0.000000 0.000000 0.000000
vn 0.000000 0.000000 0.000000
vn 0.000000 0.000000 0.000000
vn 0.000000 0.000000 0.000000
vn 0.000000 0.000000 0.000000
vn 0.000000 0.000000 0.000000
vn 0.000000 0.000000 0.000000
vn 0.000000 0.000000 0.000000
vn 0.000000 0.000000 0.000000
vn 0.000000 0.000000 0.000000
vn 0.000000 0.000000 0.000000
vn 0.000000 0.000000 0.000000
vn 0.000000 0.000000 0.000000
vn 0.000000 0.000000 0.000000
vn 0.000000 0.000000 0.000000
vn 0.000000 0.000000 0.000000
vn 0.000000 0.000000 0.000000
vn 0.000000 0.000000 0.000000
vn 0.000000 0.000000 0.000000
vn 0.000000 0.000000 0.000000
vn 0.000000 0.000000 0.000000
vn 0.000000 0.000000 0.000000
vn 0.000000 0.000000 0.000000
vn 0.000000 0.000000 0.000000
vn 0.000000 0.000000 0.000000
vn 0.000000 0.000000 0.000000
vn 0.000000 0.000000 0.000000
vn 0.000000 0.000000 0.000000
vn 0.000000 0.000000 0.000000
vn 0.000000 0.000000 0.000000
vn 0.000000 0.000000 0.000000
vn 0.000000 0.000000 0.000000
vn 0.000000 0.000000 0.000000
vn 0.000000 0.000000 0.000000
vn 0.000000 0.000000 0.000000
vn 0.000000 0.000000 0.000000
vn 0.000000 0.000000 0.000000
vn 0.000000 0.000000 0.000000
vn 0.000000 0.000000 0.000000
vn 0.000000 0.000000 0.000000
vn 0.000000 0.000000 0.000000
vn 0.000000 0.000000 0.000000
vn 0.000000 0.000000 0.000000
vn 0.000000 0.000000 0.000000
vn 0.000000 0.000000 0.000000
vn 0.000000 0.000000 0.000000
vn 0.000000 0.000000 0.000000
vn 0.000000 0.000000 0.000000
vn 0.000000 0.000000 0.000000
vn 0.000000 0.000000 0.000000
vn 0.000000 0.000000 0.000000
vn 0.000000 0.000000 0.000000
vn 0.000000 0.000000 0.000000
vn 0.000000 0.000000 0.000000
vn 0.000000 0.000000 0.000000
vn 0.000000 0.000000 0.000000
vn 0.000000 0.000000 0.000000
vn 0.000000 0.000000 0.000000
vn 0.000000 0.000000 0.000000
vn 0.000000 0.000000 0.000000
vn 0.000000 0.000000 0.000000
vn 0.000000 0.000000 0.000000
vn 0.000000 0.000000 0.000000
vn 0.000000 0.000000 0.000000
vn 0.557446 0.789947 -0.255418
vn 0.799235 0.584681 -0.139181
vn 0.827699 0.546238 -0.128602
vn 0.627855 0.745372 -0.224096
vn 0.001488 0.932599 -0.360912
vn 0.396753 0.862821 -0.313251
vn 0.400154 0.861550 -0.312423
vn 0.001547 0.932594 -0.360923
vn -0.149139 0.928063 -0.341258
vn -0.179040 0.924550 -0.336381
vn -0.678927 0.710456 -0.185229
vn -0.399572 0.871454 -0.284447
vn -0.404567 0.870303 -0.280887
vn -0.718442 0.674495 -0.169993
vn -0.858460 0.502044 -0.104875
vn -0.896918 0.434707 -0.081046
vn -0.985187 -0.170697 -0.016404
vn -0.972896 0.231028 -0.009924
vn -0.972599 0.232244 -0.010646
vn -0.985187 -0.170697 -0.016404
vn -0.907480 -0.412743 -0.078256
vn -0.622682 -0.750471 -0.221496
vn -0.215397 -0.916639 -0.336716
vn 0.215396 -0.916639 -0.336716
vn 0.550987 -0.795940 -0.250784
vn 0.622682 -0.750471 -0.221497
vn 0.803137 -0.579666 -0.137689
vn 0.833329 -0.538204 -0.126094
vn 0.999729 0.004785 -0.022779
vn 0.972730 -0.230320 -0.027365
vn 0.972250 -0.232642 -0.024652
vn 0.999729 0.004785 -0.022779
vn 0.972779 0.230029 -0.028082
vn 0.972184 0.232825 -0.025526
vn -0.433884 0.900969 0.000000
vn -0.433884 0.900969 0.000000
vn -0.433883 0.900969 0.000000
vn -0.000000 0.000000 0.000000
vn -0.000000 0.000000 0.000000
vn -1.000000 0.000000 0.000000
vn -1.000000 0.000000 0.000000
vn -0.433883 0.900969 0.000000
vn -0.433881 0.900970 0.000000
vn -0.433883 0.900969 0.000000
vn -0.272929 0.566744 -0.777374
vn -0.272929 0.566744 -0.777374
vn -0.272929 0.566744 -0.777374
vn -0.272929 0.566744 -0.777374
vn -0.900969 -0.433884 0.000000
vn -0.900969 -0.433884 0.000000
vn -0.900969 -0.433884 0.000000
vn -0.900969 -0.433884 0.000000
vn 0.109936 -0.228284 0.967368
vn 0.109936 -0.228284 0.967368
vn 0.109936 -0.228283 0.967368
vn 0.109936 -0.228284 0.967368
vn 0.900969 0.433883 0.000000
vn 0.900969 0.433883 0.000000
vn 0.900969 0.433883 0.000000
vn 0.900969 0.433883 0.000000
s 1
g pCylinder4
usemtl lambert4SG
f 1/15/1 2/16/2 14/31/3 13/30/4
f 2/16/2 25/61/5 26/63/6 14/31/3
s 2
f 3/17/7 4/18/8 16/33/9 15/32/10
s off
f 120/164/11 121/165/12 122/166/13 123/167/14
s 3
f 5/19/15 6/20/16 18/35/17 17/34/18
f 6/20/16 33/72/19 34/75/20 18/35/17
s off
f 7/21/21 8/22/22 20/37/23 19/36/24
s 4
f 55/101/25 56/23/26 57/38/27 58/100/28
f 56/23/26 59/24/29 60/39/30 57/38/27
f 59/24/29 61/102/31 62/103/32 60/39/30
s 5
f 9/25/33 10/26/34 22/41/35 21/40/36
f 10/26/34 11/27/37 23/42/38 22/41/35
s off
f 39/84/39 40/85/40 41/86/41 42/87/42
s 6
f 12/28/43 35/76/44 36/79/45 24/43/46
s 7
f 97/141/47 96/142/48 98/59/49
f 100/143/50 99/144/51 97/141/47 98/59/49
f 101/145/52 100/143/50 98/59/49
f 103/146/53 102/147/54 101/145/52 98/59/49
f 104/148/55 103/146/53 98/59/49
f 106/149/56 105/150/57 104/148/55 98/59/49
f 107/151/58 106/149/56 98/59/49
f 108/152/59 107/151/58 98/59/49
f 109/153/60 108/152/59 98/59/49
f 110/154/61 109/153/60 98/59/49
f 111/155/62 110/154/61 98/59/49
f 112/156/63 111/155/62 98/59/49
f 114/157/64 113/158/65 112/156/63 98/59/49
f 96/142/48 115/159/66 114/157/64 98/59/49
s 8
f 78/121/67 79/122/68 80/60/69
f 81/123/70 82/124/71 80/60/69
f 82/124/71 83/125/72 84/126/73 80/60/69
f 84/126/73 85/127/74 80/60/69
f 85/127/74 86/128/75 87/129/76 80/60/69
f 87/129/76 58/130/77 80/60/69
f 58/130/77 57/49/78 80/60/69
f 57/49/78 60/48/79 80/60/69
f 60/48/79 62/131/80 80/60/69
f 62/131/80 88/132/81 80/60/69
f 88/132/81 89/133/82 80/60/69
f 89/133/82 90/134/83 91/135/84 80/60/69
f 91/135/84 92/136/85 78/121/67 80/60/69
s off
f 27/64/86 28/65/87 29/66/88 30/67/89
f 25/61/90 3/17/91 28/65/92 27/64/93
f 3/17/94 15/32/95 29/66/96 28/65/97
f 26/63/98 25/61/99 27/64/100 30/67/101
f 93/137/102 94/138/103 95/139/104 81/123/105 80/60/106 79/140/107
f 43/88/108 44/89/109 45/90/110 46/91/111
f 47/92/112 48/93/113 49/94/114 50/95/115
f 51/96/116 52/97/117 53/98/118 54/99/119
s 6
f 37/80/120 12/28/43 24/43/46 38/83/121
s off
f 11/27/122 37/80/123 40/85/124 39/84/125
f 37/80/126 38/83/127 41/86/128 40/85/129
f 38/83/130 23/42/131 42/87/132 41/86/133
f 23/42/134 11/27/135 39/84/136 42/87/137
f 31/68/138 5/19/139 44/89/140 43/88/141
f 5/19/142 17/34/143 45/90/144 44/89/145
f 17/34/146 32/71/147 46/91/148 45/90/149
f 32/71/150 31/68/151 43/88/152 46/91/153
f 33/72/154 7/21/155 48/93/156 47/92/157
f 7/21/158 19/36/159 49/94/160 48/93/161
f 19/36/162 34/75/163 50/95/164 49/94/165
f 34/75/166 33/72/167 47/92/168 50/95/169
f 35/76/170 1/29/171 52/97/172 51/96/173
f 1/29/174 13/44/175 53/98/176 52/97/177
f 13/44/178 36/79/179 54/99/180 53/98/181
f 36/79/182 35/76/183 51/96/184 54/99/185
f 20/37/186 8/22/187 55/101/188 58/100/189
f 9/25/190 21/40/191 62/103/192 61/102/193
f 2/2/194 1/1/195 63/105/196 64/104/197
f 3/3/198 25/62/199 65/107/200 66/106/201
f 25/62/202 2/2/203 64/104/204 65/107/205
f 4/4/206 3/3/207 66/106/208 67/108/209
f 5/5/210 31/69/211 68/110/212 69/109/213
f 31/69/214 4/4/215 67/108/216 68/110/217
f 6/6/218 5/5/219 69/109/220 70/111/221
f 7/7/222 33/73/223 71/113/224 72/112/225
f 33/73/226 6/6/227 70/111/228 71/113/229
f 8/8/230 7/7/231 72/112/232 55/114/233
f 10/12/234 9/11/235 61/116/236 73/115/237
f 11/13/238 10/12/239 73/115/240 74/117/241
f 12/14/242 37/81/243 75/119/244 76/118/245
f 37/81/246 11/13/247 74/117/248 75/119/249
f 1/1/250 35/77/251 77/120/252 63/105/253
f 35/77/254 12/14/255 76/118/256 77/120/257
f 13/57/258 14/56/259 79/122/260 78/121/261
f 15/55/262 16/54/263 82/124/264 81/123/265
f 16/54/266 32/70/267 83/125/268 82/124/269
f 32/70/270 17/53/271 84/126/272 83/125/273
f 17/53/274 18/52/275 85/127/276 84/126/277
f 18/52/278 34/74/279 86/128/280 85/127/281
f 34/74/282 19/51/283 87/129/284 86/128/285
f 19/51/286 20/50/287 58/130/288 87/129/289
f 21/47/290 22/46/291 88/132/292 62/131/293
f 22/46/294 23/45/295 89/133/296 88/132/297
f 23/45/298 38/82/299 90/134/300 89/133/301
f 38/82/302 24/58/303 91/135/304 90/134/305
f 24/58/306 36/78/307 92/136/308 91/135/309
f 36/78/310 13/57/311 78/121/312 92/136/313
f 26/63/314 30/67/315 94/138/316 93/137/317
f 30/67/318 29/66/319 95/139/320 94/138/321
f 29/66/322 15/55/323 81/123/324 95/139/325
f 14/31/326 26/63/327 93/137/328 79/140/329
s 4
f 64/104/330 63/105/331 96/142/332 97/141/333
f 66/106/334 65/107/335 99/144/336 100/143/337
f 65/107/335 64/104/330 97/141/333 99/144/336
f 67/108/338 66/106/334 100/143/337 101/145/339
f 69/109/340 68/110/341 102/147/342 103/146/343
f 68/110/341 67/108/338 101/145/339 102/147/342
f 70/111/344 69/109/340 103/146/343 104/148/345
f 72/112/346 71/113/347 105/150/348 106/149/349
f 71/113/347 70/111/344 104/148/345 105/150/348
f 55/114/25 72/112/346 106/149/349 107/151/350
f 56/9/26 55/114/25 107/151/350 108/152/351
f 59/10/29 56/9/26 108/152/351 109/153/352
f 61/116/31 59/10/29 109/153/352 110/154/353
f 73/115/354 61/116/31 110/154/353 111/155/355
f 74/117/356 73/115/354 111/155/355 112/156/357
f 76/118/358 75/119/359 113/158/360 114/157/361
f 75/119/359 74/117/356 112/156/357 113/158/360
f 63/105/331 77/120/362 115/159/363 96/142/332
f 77/120/362 76/118/358 114/157/361 115/159/363
s 2
f 4/18/8 31/68/364 117/161/365 116/160/366
s off
f 31/68/367 32/71/368 118/162/369 117/161/370
s 2
f 32/71/371 16/33/9 119/163/372 118/162/373
f 16/33/9 4/18/8 116/160/366 119/163/372
s off
f 116/160/374 117/161/375 121/165/376 120/164/377
f 117/161/378 118/162/379 122/166/380 121/165/381
f 118/162/382 119/163/383 123/167/384 122/166/385
f 119/163/386 116/160/387 120/164/388 123/167/389
